<?xml version="1.0" encoding="utf-8"?>
<!-- Generator: Adobe Illustrator 25.2.1, SVG Export Plug-In . SVG Version: 6.00 Build 0)  -->
<svg version="1.1" id="레이어_1" xmlns="http://www.w3.org/2000/svg" xmlns:xlink="http://www.w3.org/1999/xlink" x="0px"
	 y="0px" viewBox="0 0 1000 1000" style="enable-background:new 0 0 1000 1000;" xml:space="preserve">
<style type="text/css">
	.st0{fill:#764ABC;}
</style>
<g>
	<path class="st0" d="M689,686.4c35.4-3.9,62.9-35.4,62.9-72.7c-2-37.3-31.4-66.8-70.7-66.8h-2c-39.3,2-68.8,33.4-66.8,72.7
		c2,19.6,7.9,35.4,19.6,45.2c-43.2,82.5-108,145.4-204.3,196.4c-66.8,35.4-133.6,47.1-202.3,39.3c-57-7.9-100.2-31.4-127.7-72.7
		c-39.3-60.9-43.2-127.7-9.8-192.5c23.6-51.1,60.9-86.4,84.5-102.1c-5.9-15.7-11.8-43.2-15.7-62.9C-24.1,600-6.4,776.8,48.6,859.3
		c41.3,62.9,123.8,100.2,216.1,100.2c25.5,0,49.1-2,74.6-7.9C500.4,920.2,620.2,825.9,689,686.4z M909,531.2
		c-94.3-110-233.8-172.9-392.9-172.9h-19.6c-11.8-21.6-35.4-37.3-60.9-37.3h-2c-39.3,2-68.8,33.4-66.8,72.7
		c2,37.3,31.4,66.8,70.7,66.8h2c27.5-2,51.1-19.6,60.9-43.2H522c94.3,0,184.6,27.5,265.2,80.5c62.9,41.3,108,94.3,131.6,159.1
		c21.6,53,19.6,104.1-2,147.3c-35.4,66.8-94.3,102.1-170.9,102.1c-49.1,0-96.3-15.7-121.8-25.5c-13.8,11.8-39.3,31.4-57,45.2
		c53,25.5,108,39.3,161.1,39.3c119.8,0,208.2-66.8,241.6-131.6C1005.2,761.1,1003.3,637.3,909,531.2z M276.5,706
		c2,37.3,31.4,66.8,70.7,66.8h2c39.3-2,68.8-33.4,66.8-72.7c-2-37.3-31.4-66.8-70.7-66.8h-2c-2,0-5.9,0-7.9,2
		c-51.1-84.5-72.7-176.8-64.8-277c5.9-74.6,29.5-139.5,72.7-192.5c35.4-45.2,106.1-68.8,153.2-70.7C628.1,93.2,685,256.2,689,323
		c15.7,3.9,43.2,11.8,62.9,19.6C736.1,140.3,610.4,36.2,490.6,36.2c-112,0-216.1,80.5-257.3,200.4c-57,159.1-19.6,312.3,49.1,434.1
		C278.4,678.5,274.5,692.3,276.5,706z"/>
</g>
</svg>
