<?xml version="1.0" encoding="utf-8"?>
<!-- Generator: Adobe Illustrator 25.2.1, SVG Export Plug-In . SVG Version: 6.00 Build 0)  -->
<svg version="1.1" id="레이어_1" xmlns="http://www.w3.org/2000/svg" xmlns:xlink="http://www.w3.org/1999/xlink" x="0px"
	 y="0px" viewBox="0 0 1000 1000" style="enable-background:new 0 0 1000 1000;" xml:space="preserve">
<style type="text/css">
	.st0{fill:#F32735;}
</style>
<g>
	<path class="st0" d="M960.7,457.2L542.3,38.9c-24.1-24.1-63.2-24.1-87.3,0l-86.9,86.9L478.4,236c25.6-8.7,55-2.8,75.4,17.6
		c20.5,20.5,26.3,50.2,17.4,75.9l106.2,106.2c25.7-8.9,55.3-3.1,75.9,17.4c28.7,28.7,28.7,75.1,0,103.8
		c-28.7,28.7-75.2,28.7-103.9,0c-21.6-21.6-26.9-53.3-16-79.8l-99-99.1l0,260.7c7,3.5,13.6,8.1,19.4,13.9
		c28.7,28.7,28.7,75.1,0,103.8c-28.7,28.7-75.2,28.7-103.8,0c-28.7-28.7-28.7-75.2,0-103.8c7.1-7.1,15.3-12.4,24-16V373.4
		c-8.8-3.6-16.9-8.9-24-16c-21.7-21.7-27-53.6-15.8-80.3L325.5,168.5L38.6,455.3c-24.1,24.1-24.1,63.2,0,87.3L457,960.9
		c24.1,24.1,63.2,24.1,87.3,0l416.4-416.4C984.8,520.4,984.8,481.3,960.7,457.2z"/>
</g>
</svg>
