<?xml version="1.0" encoding="utf-8"?>
<!-- Generator: Adobe Illustrator 25.2.1, SVG Export Plug-In . SVG Version: 6.00 Build 0)  -->
<svg version="1.1" id="레이어_1" xmlns="http://www.w3.org/2000/svg" xmlns:xlink="http://www.w3.org/1999/xlink" x="0px"
	 y="0px" viewBox="0 0 1000 1000" style="enable-background:new 0 0 1000 1000;" xml:space="preserve">
<style type="text/css">
	.st0{fill:#F7DF1E;}
</style>
<path class="st0" d="M153.5,5h693C927.6,5,995,72.4,995,153.5v693c0,81.1-67.4,148.5-148.5,148.5h-693C72.4,995,5,927.6,5,846.5
	v-693C5,72.4,72.4,5,153.5,5z"/>
<path d="M630.6,719.9c19.9,33.6,45.5,55.5,91.1,55.5c39.6,0,63.4-19.9,63.4-45.5c0-31.6-25.7-41.6-67.4-61.4l-21.9-9.9
	c-67.2-29.8-112.7-63.4-112.7-138.6c0-69.4,51.5-122.8,134.6-122.8c59.4,0,103,21.9,130.6,75.2l-71.4,45.5
	c-15.9-29.6-33.6-41.6-59.4-41.6c-25.8,0-43.5,17.9-43.5,41.6c0,27.6,17.9,39.6,57.4,55.5l23.8,9.9C834.3,618.9,878,650.7,878,729.8
	c0,83.1-65.4,128.6-154.5,128.6c-87.1,0-142.5-41.6-170.4-95L630.6,719.9z M302,727.6c15.9,25.7,27.6,47.5,59.4,47.5
	s49.5-11.9,49.5-57.4V397h93v316.9c0,97-55.5,138.6-138.6,138.6c-75.2,0-118.9-39.6-138.6-85.1L302,727.6z"/>
</svg>
