<?xml version="1.0" encoding="utf-8"?>
<!-- Generator: Adobe Illustrator 25.2.1, SVG Export Plug-In . SVG Version: 6.00 Build 0)  -->
<svg version="1.1" id="레이어_1" xmlns="http://www.w3.org/2000/svg" xmlns:xlink="http://www.w3.org/1999/xlink" x="0px"
	 y="0px" viewBox="0 0 1000 1000" style="enable-background:new 0 0 1000 1000;" xml:space="preserve">
<g>
	<path d="M237.4,356.9h185.9v13.8H253.2v110.8h160.2v15.8H253.2V620h172.1v13.8H237.4C237.4,633.9,237.4,356.9,237.4,356.9z
		 M441.2,356.9h19.8l87,122.6l89-122.6l122.6-156.3L559.8,491.5l102.9,142.4h-19.8L548,503.3L453,633.9h-19.8l104.8-142.4
		L441.2,356.9z M670.6,370.8v-13.8h211.6v13.8h-98.9v263.1h-17.8V370.8H670.6z M4,356.9h21.8l294.7,439.1L197.9,633.9l-176-257.1
		v257.1H4V356.9z M880.3,614.1c-4,0-5.9-2-5.9-5.9c0-4,2-5.9,5.9-5.9c4,0,5.9,2,5.9,5.9C888.2,612.1,884.2,614.1,880.3,614.1z
		 M898.1,598.3h9.9c0,5.9,4,7.9,9.9,7.9s9.9-4,9.9-9.9v-41.5h9.9v41.5c0,11.9-7.9,19.8-17.8,19.8C906,616.1,898.1,608.2,898.1,598.3
		z M947.5,598.3h9.9c0,5.9,5.9,9.9,13.8,9.9s13.8-4,13.8-9.9c0-4-4-7.9-11.9-9.9l-7.9-2c-9.9-2-15.8-7.9-15.8-15.8
		c0-9.9,7.9-17.8,21.8-17.8c11.9,0,21.8,7.9,21.8,17.8h-9.9c0-5.9-5.9-9.9-11.9-9.9c-7.9,0-11.9,4-11.9,9.9c0,4,4,5.9,11.9,7.9
		l5.9,2c11.9,2,17.8,7.9,17.8,17.8c0,11.9-7.9,17.8-23.7,17.8C957.4,616.1,947.5,608.2,947.5,598.3z"/>
</g>
</svg>
