<?xml version="1.0" encoding="utf-8"?>
<!-- Generator: Adobe Illustrator 25.2.1, SVG Export Plug-In . SVG Version: 6.00 Build 0)  -->
<svg version="1.1" id="레이어_1" xmlns="http://www.w3.org/2000/svg" xmlns:xlink="http://www.w3.org/1999/xlink" x="0px"
	 y="0px" viewBox="0 0 1000 1000" style="enable-background:new 0 0 1000 1000;" xml:space="preserve">
<style type="text/css">
	.st0{fill:#61DAFB;}
</style>
<g>
	<path class="st0" d="M992,499.2c0-65.4-81.2-126.8-206-164.4c29.7-126.8,15.8-229.7-39.6-261.4c-13.9-7.9-27.7-11.9-45.6-11.9v45.6
		c9.9,0,15.8,2,23.8,5.9c27.7,15.8,39.6,75.3,29.7,152.5c-2,19.8-5.9,39.6-9.9,59.4c-39.6-9.9-83.2-17.8-126.8-21.8
		c-27.7-37.6-55.5-71.3-83.2-101c65.4-61.4,126.8-93.1,168.3-93.1V61.6l0,0c-55.5,0-126.8,39.6-200,106.9
		c-75.3-67.3-148.5-105-204-105v45.6c41.6,0,103,33.7,168.3,93.1c-27.7,29.7-55.5,63.4-83.2,101c-45.6,4-89.1,11.9-126.8,21.8
		c-4-19.8-7.9-39.6-9.9-57.4c-9.9-79.2,2-138.6,29.7-154.5c5.9-4,13.9-5.9,21.8-5.9V63.5l0,0c-17.8,0-31.7,4-45.6,11.9
		c-55.5,31.7-69.3,134.7-39.6,261.4c-124.8,37.6-206,101-206,164.4c0,65.4,81.2,126.8,206,164.4C184,792.4,197.8,895.3,253.3,927
		c13.9,7.9,27.7,11.9,45.6,11.9c55.5,0,126.8-39.6,200-106.9c73.3,67.3,144.6,106.9,200,106.9c17.8,0,31.7-4,45.6-11.9
		c55.5-31.7,69.3-134.7,39.6-261.4C910.8,626,992,564.6,992,499.2z M730.6,366.6c-7.9,25.7-15.8,53.5-27.7,79.2
		c-7.9-15.8-17.8-31.7-25.7-47.5c-9.9-15.8-19.8-31.7-29.7-47.5C677.1,354.7,704.8,360.6,730.6,366.6z M639.5,580.4
		c-15.8,27.7-31.7,53.5-47.5,77.2c-29.7,2-59.4,4-91.1,4c-29.7,0-61.4-2-91.1-4c-15.8-23.8-33.7-49.5-49.5-75.3
		c-15.8-25.7-29.7-53.5-41.6-79.2c11.9-27.7,25.7-53.5,41.6-79.2c15.8-27.7,31.7-53.5,47.5-77.2c29.7-2,59.4-4,91.1-4
		c29.7,0,61.4,2,91.1,4c15.8,23.8,33.7,49.5,49.5,75.3c15.8,25.7,29.7,53.5,41.6,79.2C667.2,527,653.3,552.7,639.5,580.4z
		 M704.8,552.7c9.9,27.7,19.8,53.5,27.7,79.2c-25.7,5.9-53.5,11.9-83.2,15.8c9.9-15.8,19.8-31.7,29.7-47.5
		C687,586.4,694.9,570.5,704.8,552.7z M500.8,766.6c-17.8-19.8-37.6-41.6-55.5-63.4c17.8,0,35.6,2,55.5,2s37.6,0,55.5-2
		C538.5,727,518.7,748.8,500.8,766.6z M352.3,649.8c-27.7-4-55.5-9.9-83.2-15.8c7.9-25.7,15.8-53.5,27.7-79.2
		c7.9,15.8,17.8,31.7,25.7,47.5C332.5,618.1,342.4,633.9,352.3,649.8z M498.9,231.9c17.8,19.8,37.6,41.6,55.5,63.4
		c-17.8,0-35.6-2-55.5-2c-19.8,0-37.6,0-55.5,2C463.2,273.5,481,251.7,498.9,231.9z M350.3,350.7c-9.9,15.8-19.8,31.7-29.7,47.5
		c-9.9,15.8-17.8,31.7-25.7,47.5c-9.9-27.7-19.8-53.5-27.7-79.2C294.9,360.6,322.6,354.7,350.3,350.7z M170.1,602.2
		c-71.3-29.7-116.8-69.3-116.8-101s45.6-71.3,116.8-101c17.8-7.9,35.6-13.9,55.5-19.8c11.9,39.6,25.7,79.2,45.6,122.8
		c-17.8,41.6-33.7,83.2-43.6,120.8C205.7,616.1,187.9,608.2,170.1,602.2z M277,887.4c-27.7-15.8-39.6-75.3-29.7-152.5
		c2-19.8,5.9-39.6,9.9-59.4c39.6,9.9,83.2,17.8,126.8,21.8c27.7,37.6,55.5,71.3,83.2,101c-65.4,61.4-126.8,93.1-168.3,93.1
		C290.9,893.4,283,891.4,277,887.4z M752.4,734.9c9.9,77.2-2,136.7-29.7,152.5c-5.9,4-13.9,5.9-23.8,5.9
		c-41.6,0-103-33.7-168.3-93.1c27.7-29.7,55.5-63.4,83.2-101c45.6-4,89.1-11.9,126.8-21.8C746.4,697.3,750.4,717.1,752.4,734.9z
		 M829.6,602.2c-17.8,7.9-35.6,13.9-55.5,19.8c-11.9-39.6-25.7-79.2-45.6-122.8c17.8-41.6,33.7-83.2,43.6-120.8
		c19.8,5.9,39.6,13.9,55.5,19.8c71.3,29.7,116.8,69.3,116.8,101C946.4,530.9,900.9,570.5,829.6,602.2z"/>
	<path class="st0" d="M298.8,63.5L298.8,63.5L298.8,63.5z"/>
	<circle class="st0" cx="500.8" cy="499.2" r="91.1"/>
	<path class="st0" d="M698.9,61.6L698.9,61.6L698.9,61.6z"/>
</g>
</svg>
