<?xml version="1.0" encoding="utf-8"?>
<!-- Generator: Adobe Illustrator 25.2.1, SVG Export Plug-In . SVG Version: 6.00 Build 0)  -->
<svg version="1.1" id="레이어_1" xmlns="http://www.w3.org/2000/svg" xmlns:xlink="http://www.w3.org/1999/xlink" x="0px"
	 y="0px" viewBox="0 0 1000 1000" style="enable-background:new 0 0 1000 1000;" xml:space="preserve">
<style type="text/css">
	.st0{fill:#3178C6;}
	.st1{fill-rule:evenodd;clip-rule:evenodd;fill:#FFFFFF;}
</style>
<g>
	<path class="st0" d="M105.3,9.2h788.6c53,0,96.1,43.2,96.1,96.1v788.6c0,53-43.2,96.1-96.1,96.1H105.3c-53,0-96.1-43.2-96.1-96.1
		V105.3C9.2,52.3,52.3,9.2,105.3,9.2z"/>
	<path class="st0" d="M105.3,9.2h788.6c53,0,96.1,43.2,96.1,96.1v788.6c0,53-43.2,96.1-96.1,96.1H105.3c-53,0-96.1-43.2-96.1-96.1
		V105.3C9.2,52.3,52.3,9.2,105.3,9.2z"/>
	<path class="st1" d="M617.3,789.9V886c15.7,7.8,33.3,13.7,54.9,17.7c21.6,3.9,43.2,5.9,66.7,5.9s45.1-2,64.7-5.9
		c21.6-3.9,39.2-11.8,54.9-21.6s27.5-23.5,37.3-39.2c9.8-15.7,13.7-37.3,13.7-60.8c0-17.7-2-33.3-7.8-45.1
		c-5.9-13.7-11.8-25.5-21.6-35.3c-9.8-9.8-21.6-19.6-35.3-27.5c-13.7-7.8-29.4-15.7-47.1-23.5c-11.8-5.9-23.5-9.8-33.3-15.7
		c-9.8-3.9-17.7-9.8-25.5-15.7c-7.8-5.9-11.8-9.8-15.7-15.7c-3.9-5.9-5.9-11.8-5.9-19.6c0-5.9,2-11.8,5.9-17.7
		c3.9-5.9,7.8-9.8,13.7-13.7c5.9-3.9,13.7-5.9,23.5-9.8c9.8-2,19.6-3.9,29.4-3.9c7.8,0,15.7,0,25.5,2c9.8,2,17.7,3.9,27.5,5.9
		c9.8,2,17.7,5.9,25.5,9.8c7.8,3.9,15.7,7.8,23.5,13.7V480c-13.7-5.9-31.4-9.8-47.1-11.8c-17.7-2-37.3-3.9-58.9-3.9
		c-23.5,0-45.1,2-64.7,7.8c-19.6,3.9-39.2,11.8-53,23.5c-15.7,9.8-27.5,23.5-37.3,39.2c-9.8,15.7-13.7,35.3-13.7,56.9
		c0,29.4,7.8,53,25.5,72.6c15.7,19.6,41.2,37.3,74.5,51c13.7,5.9,25.5,9.8,37.3,15.7c11.8,5.9,21.6,9.8,29.4,15.7
		c7.8,5.9,15.7,11.8,19.6,17.7c3.9,5.9,7.8,13.7,7.8,21.6c0,5.9-2,11.8-3.9,17.7c-3.9,5.9-7.8,9.8-13.7,13.7
		c-5.9,3.9-13.7,7.8-23.5,9.8c-11.8,5.9-23.5,5.9-35.3,5.9c-21.6,0-41.2-3.9-60.8-11.8C652.6,815.4,633,803.6,617.3,789.9
		L617.3,789.9z M454.5,552.5H578v-78.5H234.8v78.5h121.6v351.1h98.1V552.5z"/>
</g>
</svg>
